<svg width="42" height="42" viewBox="0 0 42 42" fill="none" xmlns="http://www.w3.org/2000/svg">
<path d="M17.2361 27.676H18.5121C18.9064 27.6749 19.2842 27.5178 19.5631 27.239C19.8419 26.9602 19.999 26.5823 20.0001 26.188V24.688C21.1164 24.8437 22.1456 25.3773 22.9161 26.2L23.1281 26.424C23.2935 26.7963 23.5632 27.1126 23.9047 27.3348C24.2462 27.557 24.6447 27.6755 25.0521 27.676H25.8881C26.4479 27.6749 26.9845 27.4521 27.3803 27.0562C27.7762 26.6604 27.999 26.1238 28.0001 25.564V16.024C27.999 15.4635 27.7756 14.9263 27.3789 14.5303C26.9822 14.1344 26.4446 13.912 25.8841 13.912H25.0521C24.645 13.9116 24.2466 14.0293 23.9051 14.2508C23.5636 14.4723 23.2937 14.7881 23.1281 15.16L22.9161 15.388C22.4544 15.8805 21.8969 16.2733 21.2778 16.5422C20.6587 16.8112 19.9911 16.9506 19.3161 16.952H16.7681C16.1123 16.9535 15.4757 17.1728 14.9581 17.5753C14.4404 17.9778 14.0711 18.5409 13.9081 19.176C13.5652 19.2852 13.266 19.5006 13.0536 19.7911C12.8413 20.0816 12.7268 20.4321 12.7268 20.792C12.7268 21.1518 12.8413 21.5023 13.0536 21.7928C13.266 22.0833 13.5652 22.2988 13.9081 22.408C14.0274 22.8713 14.257 23.2988 14.5774 23.654C14.8979 24.0093 15.2995 24.2817 15.7481 24.448V26.188C15.7491 26.5823 15.9062 26.9602 16.1851 27.239C16.4639 27.5178 16.8417 27.6749 17.2361 27.676ZM18.4001 26.076H17.3481V24.632H18.4001V26.076ZM24.5401 16.024C24.5401 15.8882 24.594 15.758 24.69 15.6619C24.786 15.5659 24.9163 15.512 25.0521 15.512H25.8881C26.0239 15.512 26.1541 15.5659 26.2501 15.6619C26.3461 15.758 26.4001 15.8882 26.4001 16.024V25.564C26.399 25.7001 26.3442 25.8304 26.2475 25.9263C26.1509 26.0222 26.0202 26.076 25.8841 26.076H25.0521C24.9163 26.076 24.786 26.022 24.69 25.926C24.594 25.83 24.5401 25.6998 24.5401 25.564V16.024ZM22.9401 17.444V24.14C22.0918 23.5775 21.1256 23.2176 20.1161 23.088V18.496C21.1265 18.3701 22.0935 18.0098 22.9401 17.444ZM15.4161 19.908C15.4161 19.549 15.5584 19.2047 15.8118 18.9506C16.0652 18.6964 16.4091 18.553 16.7681 18.552H18.5161V23.032H16.7681C16.4098 23.0309 16.0665 22.8882 15.8132 22.6348C15.5599 22.3815 15.4171 22.0382 15.4161 21.68V19.908Z" fill="#1F1F1F"/>
<path d="M41.012 16.756L36.8 15.6C36.5317 14.768 36.1973 13.9587 35.8 13.18L37.972 9.372C38.059 9.21915 38.0933 9.04189 38.0694 8.86763C38.0455 8.69336 37.9649 8.53183 37.84 8.408L33.2 3.78C33.0762 3.65509 32.9146 3.57446 32.7404 3.5506C32.5661 3.52674 32.3888 3.56097 32.236 3.648L28.432 5.816C27.6487 5.41524 26.8356 5.07556 26 4.8L24.844 0.588C24.7975 0.418936 24.6968 0.269817 24.5573 0.163579C24.4179 0.0573413 24.2473 -0.000131539 24.072 2.26062e-07H17.528C17.3527 -0.000131539 17.1821 0.0573413 17.0427 0.163579C16.9032 0.269817 16.8025 0.418936 16.756 0.588L15.6 4.8C14.7675 5.07206 13.9571 5.40772 13.176 5.804L9.372 3.636C9.21915 3.54897 9.04189 3.51474 8.86763 3.5386C8.69336 3.56246 8.53183 3.64309 8.408 3.768L3.78 8.4C3.65509 8.52382 3.57446 8.68536 3.5506 8.85963C3.52674 9.03389 3.56097 9.21115 3.648 9.364L5.82 13.172C5.42231 13.9533 5.0879 14.7652 4.82 15.6L0.588 16.756C0.418936 16.8025 0.269817 16.9032 0.163579 17.0427C0.0573413 17.1821 -0.000131539 17.3527 2.26062e-07 17.528V24.072C-0.000131539 24.2473 0.0573413 24.4179 0.163579 24.5573C0.269817 24.6968 0.418936 24.7975 0.588 24.844L4.824 26C5.09288 26.8254 5.42728 27.6279 5.824 28.4L3.648 32.216C3.55597 32.3709 3.51894 32.5524 3.54289 32.731C3.56685 32.9095 3.6504 33.0748 3.78 33.2L8.4 37.82C8.52382 37.9449 8.68536 38.0255 8.85963 38.0494C9.03389 38.0733 9.21115 38.039 9.364 37.952L13.2 35.776C13.9736 36.1684 14.7759 36.5014 15.6 36.772L16.764 41.012C16.8101 41.1797 16.9096 41.3279 17.0475 41.434C17.1853 41.5401 17.354 41.5984 17.528 41.6H24.072C24.2473 41.6001 24.4179 41.5427 24.5573 41.4364C24.6968 41.3302 24.7975 41.1811 24.844 41.012L26 36.772C26.8241 36.5014 27.6264 36.1684 28.4 35.776L32.22 37.952C32.3728 38.039 32.5501 38.0733 32.7244 38.0494C32.8986 38.0255 33.0602 37.9449 33.184 37.82L37.82 33.2C37.9449 33.0762 38.0255 32.9146 38.0494 32.7404C38.0733 32.5661 38.039 32.3888 37.952 32.236L35.776 28.4C36.1727 27.6279 36.5071 26.8254 36.776 26L41.012 24.84C41.1804 24.7937 41.329 24.6936 41.4352 24.5549C41.5414 24.4163 41.5993 24.2466 41.6 24.072V17.528C41.6001 17.3527 41.5427 17.1821 41.4364 17.0427C41.3302 16.9032 41.1811 16.8025 41.012 16.756ZM40 23.46L36.428 24.444C36.3261 24.4115 36.2188 24.3997 36.1123 24.4093C36.0058 24.419 35.9023 24.4499 35.8079 24.5003C35.7136 24.5506 35.6303 24.6193 35.563 24.7024C35.4957 24.7855 35.4457 24.8813 35.416 24.984C35.0989 26.0979 34.6547 27.1717 34.092 28.184C34.0012 28.3514 33.9731 28.5456 34.0127 28.7318C34.0523 28.918 34.157 29.0841 34.308 29.2C34.3452 29.2295 34.3854 29.255 34.428 29.276L36.26 32.476L32.496 36.24L29.296 34.416C29.2709 34.3689 29.2429 34.3235 29.212 34.28C29.0956 34.126 28.9273 34.0193 28.7384 33.9796C28.5495 33.9399 28.3526 33.9699 28.184 34.064C27.1716 34.6286 26.098 35.0755 24.984 35.396C24.7925 35.447 24.6267 35.5673 24.5188 35.7336C24.4109 35.8999 24.3685 36.1003 24.4 36.296C24.4052 36.351 24.4187 36.405 24.44 36.456L23.46 40H18.14L17.164 36.456C17.1853 36.405 17.1988 36.351 17.204 36.296C17.2307 36.105 17.1876 35.9108 17.0825 35.7491C16.9774 35.5874 16.8174 35.4691 16.632 35.416C15.518 35.0955 14.4444 34.6486 13.432 34.084C13.2634 33.9899 13.0665 33.9599 12.8776 33.9996C12.6887 34.0393 12.5204 34.146 12.404 34.3C12.3731 34.3435 12.3451 34.3889 12.32 34.436L9.12 36.26L5.356 32.496L7.188 29.296C7.2306 29.275 7.27083 29.2495 7.308 29.22C7.46198 29.1036 7.56866 28.9353 7.60836 28.7464C7.64806 28.5575 7.61809 28.3606 7.524 28.192C6.96134 27.1797 6.51708 26.1059 6.2 24.992C6.17032 24.8893 6.12034 24.7935 6.05302 24.7104C5.98569 24.6273 5.9024 24.5586 5.80805 24.5083C5.71371 24.4579 5.61022 24.427 5.50372 24.4173C5.39722 24.4077 5.28987 24.4195 5.188 24.452L1.6 23.46V18.14L5.2 17.152H5.308C5.49899 17.1787 5.69322 17.1356 5.85491 17.0305C6.01661 16.9254 6.1349 16.7654 6.188 16.58C6.50386 15.4815 6.94123 14.4216 7.492 13.42C7.58346 13.2518 7.61155 13.0564 7.57118 12.8692C7.53082 12.682 7.42466 12.5156 7.272 12.4L7.2 12.364L5.344 9.104L9.108 5.34L12.4 7.2L12.44 7.256C12.5559 7.41065 12.7238 7.51812 12.9128 7.55856C13.1018 7.599 13.299 7.56967 13.468 7.476C14.4614 6.92665 15.5133 6.49059 16.604 6.176C16.7894 6.1229 16.9494 6.00461 17.0545 5.84291C17.1596 5.68122 17.2027 5.48699 17.176 5.296C17.1779 5.27204 17.1779 5.24796 17.176 5.224L18.14 1.6H23.46L24.46 5.232C24.4581 5.25596 24.4581 5.28004 24.46 5.304C24.4333 5.49499 24.4764 5.68922 24.5815 5.85091C24.6866 6.01261 24.8466 6.1309 25.032 6.184C26.1227 6.49859 27.1746 6.93465 28.168 7.484C28.3374 7.57879 28.5355 7.60874 28.7254 7.56827C28.9153 7.52779 29.084 7.41965 29.2 7.264L29.24 7.208L32.516 5.34L36.28 9.104L34.4 12.364L34.324 12.412C34.17 12.5284 34.0633 12.6967 34.0236 12.8856C33.9839 13.0745 34.0139 13.2714 34.108 13.44C34.6588 14.4416 35.0961 15.5015 35.412 16.6C35.4651 16.7854 35.5834 16.9454 35.7451 17.0505C35.9068 17.1556 36.101 17.1987 36.292 17.172H36.4L40 18.16V23.46Z" fill="#1F1F1F"/>
<path d="M9.60006 21.6C9.81223 21.6 10.0157 21.5157 10.1657 21.3657C10.3158 21.2157 10.4001 21.0122 10.4001 20.8C10.3972 18.489 11.1642 16.2429 12.5799 14.4163C13.9956 12.5897 15.9794 11.2867 18.218 10.7129C20.4566 10.1391 22.8226 10.3273 24.9424 11.2478C27.0621 12.1683 28.8149 13.7686 29.9241 15.796L29.8001 15.844C29.6699 15.8929 29.5548 15.9748 29.4659 16.0817C29.3771 16.1885 29.3176 16.3167 29.2934 16.4536C29.2692 16.5905 29.281 16.7313 29.3278 16.8622C29.3745 16.993 29.4546 17.1095 29.5601 17.2L31.0841 18.476C31.228 18.5953 31.4091 18.6604 31.5961 18.66C31.7867 18.6639 31.9725 18.5996 32.12 18.4785C32.2674 18.3575 32.3667 18.1878 32.4001 18L32.7441 16.04C32.7675 15.9021 32.7543 15.7604 32.7059 15.6292C32.6575 15.4979 32.5754 15.3817 32.4681 15.292C32.3593 15.1994 32.2278 15.1376 32.0871 15.113C31.9465 15.0883 31.8018 15.1018 31.6681 15.152L31.4401 15.236C30.1976 12.8536 28.1914 10.957 25.743 9.85024C23.2946 8.74344 20.5455 8.49041 17.9362 9.13168C15.3268 9.77295 13.0082 11.2714 11.3517 13.387C9.6952 15.5027 8.79668 18.113 8.80006 20.8C8.80006 21.0122 8.88434 21.2157 9.03437 21.3657C9.1844 21.5157 9.38789 21.6 9.60006 21.6Z" fill="#1F1F1F"/>
<path d="M31.9999 20C31.7878 20 31.5843 20.0843 31.4343 20.2343C31.2842 20.3843 31.1999 20.5878 31.1999 20.8C31.1933 23.1211 30.4104 25.3733 28.9758 27.198C27.5413 29.0228 25.5375 30.3152 23.2835 30.8694C21.0296 31.4237 18.655 31.2081 16.5377 30.2568C14.4205 29.3055 12.6823 27.6733 11.5999 25.62L11.8199 25.54C11.9514 25.4914 12.0679 25.4091 12.1576 25.3013C12.2472 25.1936 12.307 25.0641 12.3309 24.926C12.3548 24.7878 12.342 24.6458 12.2937 24.5142C12.2455 24.3826 12.1635 24.266 12.0559 24.176L10.5359 22.9C10.4282 22.8092 10.2985 22.7485 10.1598 22.7239C10.0211 22.6994 9.87835 22.7119 9.74603 22.7602C9.61371 22.8085 9.49649 22.8909 9.40622 22.999C9.31595 23.1071 9.25583 23.2372 9.23194 23.376L8.89194 25.332C8.86742 25.4702 8.87969 25.6125 8.92754 25.7444C8.97539 25.8764 9.05713 25.9935 9.16454 26.0839C9.27196 26.1743 9.40126 26.2348 9.53948 26.2594C9.67769 26.284 9.81994 26.2718 9.95194 26.224L10.0839 26.176C11.2981 28.5852 13.2887 30.515 15.7344 31.6538C18.1801 32.7926 20.9382 33.0741 23.5636 32.4528C26.1889 31.8315 28.5283 30.3436 30.2041 28.2294C31.8799 26.1151 32.7944 23.4979 32.7999 20.8C32.7999 20.5878 32.7157 20.3843 32.5656 20.2343C32.4156 20.0843 32.2121 20 31.9999 20Z" fill="#1F1F1F"/>
</svg>
