<svg width="52" height="46" viewBox="0 0 52 46" fill="none" xmlns="http://www.w3.org/2000/svg">
<path d="M39.8981 5.69641H26.7393" stroke="#1F1F1F" stroke-width="1.3" stroke-miterlimit="10" stroke-linecap="round" stroke-linejoin="round"/>
<path d="M48.7593 21.5981H38.2261" stroke="#1F1F1F" stroke-width="1.3" stroke-miterlimit="10" stroke-linecap="round" stroke-linejoin="round"/>
<path d="M48.7593 18.0719H38.2261" stroke="#1F1F1F" stroke-width="1.3" stroke-miterlimit="10" stroke-linecap="round" stroke-linejoin="round"/>
<path d="M48.7592 14.5455H43.5176" stroke="#1F1F1F" stroke-width="1.3" stroke-miterlimit="10" stroke-linecap="round" stroke-linejoin="round"/>
<path d="M18.3042 23.4277V17.1803" stroke="#1F1F1F" stroke-width="1.3" stroke-miterlimit="10" stroke-linejoin="round"/>
<path d="M12.8291 14.0193L18.3042 17.1803L23.7794 14.0193" stroke="#1F1F1F" stroke-width="1.3" stroke-miterlimit="10" stroke-linejoin="round"/>
<path d="M12.7295 14.391V19.9698C12.7295 20.2354 12.8712 20.4807 13.1011 20.6135L17.9325 23.4029C18.1625 23.5356 18.4458 23.5356 18.6759 23.4029L23.5073 20.6135C23.7372 20.4807 23.8789 20.2354 23.8789 19.9698V14.391C23.8789 14.1254 23.7372 13.88 23.5073 13.7472L18.6759 10.9578C18.4459 10.8251 18.1626 10.8251 17.9325 10.9578L13.1011 13.7472C12.8712 13.88 12.7295 14.1254 12.7295 14.391Z" stroke="#1F1F1F" stroke-width="1.3" stroke-miterlimit="10" stroke-linecap="round" stroke-linejoin="round"/>
<path d="M23.6414 2.45033C21.9757 1.84664 20.1786 1.51697 18.3045 1.51697C9.6539 1.51697 2.64111 8.52965 2.64111 17.1803C2.64111 19.9255 3.34819 22.5053 4.58878 24.7488" stroke="#1F1F1F" stroke-width="1.3" stroke-miterlimit="10" stroke-linejoin="round"/>
<path d="M20.4736 32.6935C28.0974 31.6372 33.9678 25.0949 33.9678 17.1805C33.9678 14.886 33.4743 12.7068 32.5879 10.743" stroke="#1F1F1F" stroke-width="1.3" stroke-miterlimit="10" stroke-linejoin="round"/>
<path d="M10.5619 35.7738C12.2717 35.7738 13.6579 34.3877 13.6579 32.6778C13.6579 30.9679 12.2717 29.5818 10.5619 29.5818C8.85196 29.5818 7.46582 30.9679 7.46582 32.6778C7.46582 34.3877 8.85196 35.7738 10.5619 35.7738Z" stroke="#1F1F1F" stroke-width="1.3" stroke-miterlimit="10" stroke-linecap="round" stroke-linejoin="round"/>
<path d="M46.0799 7.58891C47.1251 7.58891 47.9723 6.74164 47.9723 5.69649C47.9723 4.65134 47.1251 3.80408 46.0799 3.80408C45.0348 3.80408 44.1875 4.65134 44.1875 5.69649C44.1875 6.74164 45.0348 7.58891 46.0799 7.58891Z" stroke="#1F1F1F" stroke-width="1.3" stroke-miterlimit="10" stroke-linecap="round" stroke-linejoin="round"/>
<path d="M38.1772 0.650024H27.4961C24.7206 0.650024 22.4497 2.92096 22.4497 5.69646C22.4497 8.47196 24.7206 10.7429 27.4961 10.7429H46.0799C48.8556 10.7429 51.1264 8.47196 51.1264 5.69646C51.1264 2.92096 48.8554 0.650024 46.0799 0.650024H41.7319" stroke="#1F1F1F" stroke-width="1.3" stroke-miterlimit="10" stroke-linecap="round" stroke-linejoin="round"/>
<path d="M22.5876 6.85962C21.2685 6.31159 19.8219 6.00842 18.3044 6.00842C14.1225 6.00842 10.4779 8.30648 8.56299 11.7083" stroke="#1F1F1F" stroke-width="1.3" stroke-miterlimit="10" stroke-linecap="round" stroke-linejoin="round"/>
<path d="M7.33707 15.045C7.20321 15.7363 7.13232 16.45 7.13232 17.1804C7.13232 23.3504 12.1342 28.3523 18.3042 28.3523C24.4742 28.3523 29.4761 23.3504 29.4761 17.1804C29.4761 14.7825 28.7203 12.5613 27.4345 10.7413" stroke="#1F1F1F" stroke-width="1.3" stroke-miterlimit="10" stroke-linecap="round" stroke-linejoin="round"/>
<path d="M26.939 30.2496L31.9686 35.2793" stroke="#1F1F1F" stroke-width="1.3" stroke-miterlimit="10" stroke-linecap="round" stroke-linejoin="round"/>
<path d="M34.482 37.7929L40.2106 43.5215C41.4352 44.7462 43.4208 44.7462 44.6454 43.5215C45.8701 42.2969 45.8701 40.3113 44.6454 39.0867L31.3735 25.8148" stroke="#1F1F1F" stroke-width="1.3" stroke-miterlimit="10" stroke-linecap="round" stroke-linejoin="round"/>
<path d="M8.85991 23.1498C8.79633 23.2607 8.75946 23.389 8.75946 23.5261V24.781C8.75946 25.113 8.54283 25.4033 8.22707 25.5057C7.85119 25.6277 7.48821 25.7782 7.14076 25.955C6.84471 26.1058 6.48619 26.054 6.25138 25.8191L5.36454 24.9323C5.06777 24.6355 4.58667 24.6355 4.2899 24.9323L2.81593 26.4063C2.51916 26.703 2.51916 27.1841 2.81593 27.4809L3.70277 28.3678C3.93768 28.6027 3.98938 28.9611 3.83866 29.2571C3.66184 29.6046 3.51132 29.9676 3.38935 30.3435C3.28687 30.6592 2.99661 30.8758 2.6646 30.8758H1.40979C0.990137 30.8758 0.649902 31.2161 0.649902 31.6357V33.7202C0.649902 34.1399 0.990137 34.4801 1.40979 34.4801H2.6647C2.99671 34.4801 3.28697 34.6967 3.38945 35.0125C3.51143 35.3884 3.66194 35.7514 3.83876 36.0988C3.98948 36.3949 3.93768 36.7533 3.70287 36.9882L2.81603 37.875C2.51926 38.1718 2.51926 38.6529 2.81603 38.9497L4.29 40.4236C4.58677 40.7204 5.06787 40.7204 5.36464 40.4236L6.25148 39.5368C6.48639 39.3019 6.84481 39.2502 7.14086 39.4009C7.48821 39.5777 7.85129 39.7282 8.22718 39.8502C8.54293 39.9527 8.75957 40.243 8.75957 40.575V41.8299C8.75957 42.2495 9.0998 42.5898 9.51946 42.5898H11.6039C12.0236 42.5898 12.3638 42.2495 12.3638 41.8299V40.575C12.3638 40.243 12.5804 39.9527 12.8962 39.8502C13.2721 39.7282 13.6351 39.5777 13.9825 39.4009C14.2786 39.2502 14.6371 39.302 14.8719 39.5368L15.7587 40.4236C16.0555 40.7204 16.5366 40.7204 16.8334 40.4236L18.3074 38.9497C18.6041 38.6529 18.6041 38.1718 18.3074 37.875L17.4205 36.9882C17.1856 36.7533 17.1339 36.3949 17.2846 36.0988C17.4614 35.7514 17.612 35.3884 17.7339 35.0125C17.8364 34.6967 18.1267 34.4801 18.4587 34.4801H19.7136C20.1332 34.4801 20.4735 34.1399 20.4735 33.7202V31.6357C20.4735 31.2161 20.1332 30.8758 19.7136 30.8758H18.4587C18.1267 30.8758 17.8364 30.6592 17.7339 30.3435C17.612 29.9676 17.4614 29.6046 17.2846 29.2571C17.1339 28.9611 17.1857 28.6026 17.4205 28.3678L17.4671 28.3211" stroke="#1F1F1F" stroke-width="1.3" stroke-miterlimit="10" stroke-linejoin="round"/>
</svg>
