<svg width="65" height="65" viewBox="0 0 65 65" fill="none" xmlns="http://www.w3.org/2000/svg">
<path d="M60.7508 47.8448C61.0149 47.9362 61.1558 48.2257 61.0631 48.491C60.9907 48.7005 60.794 48.8325 60.5832 48.8325C60.5286 48.8325 60.4715 48.8236 60.4169 48.8033L53.1857 46.2896C52.9203 46.1982 52.7807 45.9088 52.8734 45.6434C52.9648 45.3781 53.2568 45.2385 53.5196 45.3311L60.7508 47.8448Z" fill="#1F1F1F"/>
<path d="M60.0397 29.3464C60.1438 29.6067 60.0169 29.9025 59.7566 30.0066L49.6003 34.0691C49.5381 34.0932 49.4747 34.1059 49.4112 34.1059C49.2106 34.1059 49.0189 33.984 48.9402 33.786C48.8361 33.5257 48.963 33.2299 49.2233 33.1258L59.3795 29.0633C59.6373 28.9605 59.9356 29.0862 60.0397 29.3464Z" fill="#1F1F1F"/>
<path d="M58.9418 53.9894C59.1652 54.1595 59.2071 54.4782 59.037 54.7003C58.8669 54.9238 58.5482 54.9669 58.3261 54.7956C58.1331 54.6496 57.9655 54.4794 57.8246 54.2916C57.6812 54.4832 57.511 54.6534 57.3193 54.7968C57.4907 54.925 57.6481 55.0761 57.7853 55.2475C57.9605 55.4659 57.9262 55.7845 57.7078 55.961C57.6139 56.0359 57.5021 56.0727 57.3904 56.0727C57.2419 56.0727 57.0946 56.008 56.9943 55.8835C56.6985 55.5166 56.2618 55.3059 55.7959 55.3059C55.5141 55.3059 55.2881 55.0787 55.2881 54.7981C55.2881 54.5188 55.5141 54.2903 55.7959 54.2903C56.6351 54.2903 57.3193 53.6073 57.3193 52.7668C57.3193 52.4875 57.5453 52.259 57.8271 52.259C58.1077 52.259 58.335 52.4875 58.335 52.7668C58.335 53.2493 58.5559 53.6936 58.9418 53.9894Z" fill="#1F1F1F"/>
<path d="M59.0596 21.6646C59.0596 21.7826 59.052 21.9007 59.0304 22.0124C58.9783 22.2879 58.713 22.472 58.4375 22.4174C58.162 22.3653 57.9805 22.0987 58.0325 21.8232C58.0427 21.7725 58.0439 21.7179 58.0439 21.6646C58.0439 20.9638 57.4752 20.395 56.7744 20.395C56.0749 20.395 55.5049 20.9638 55.5049 21.6646C55.5049 22.4085 56.1676 22.9874 56.9039 22.9252L56.9966 23.937C56.9179 23.9434 56.8493 23.9497 56.7744 23.9497C55.515 23.9497 54.4893 22.9239 54.4893 21.6646C54.4893 20.4039 55.515 19.3794 56.7744 19.3794C58.0351 19.3794 59.0596 20.4039 59.0596 21.6646Z" fill="#1F1F1F"/>
<path d="M54.4893 38.675C54.7698 38.675 54.9971 38.9036 54.9971 39.1829C54.9971 39.4634 54.7698 39.6907 54.4893 39.6907H49.9189C49.6384 39.6907 49.4111 39.4634 49.4111 39.1829C49.4111 38.9036 49.6384 38.675 49.9189 38.675H54.4893Z" fill="#1F1F1F"/>
<path d="M51.8841 44.7624C52.1494 44.8538 52.2891 45.1445 52.1964 45.4086C52.124 45.618 51.9273 45.7501 51.7165 45.7501C51.6619 45.7501 51.6048 45.7412 51.5502 45.7209L48.7369 44.7408C48.4716 44.6494 48.332 44.3587 48.4246 44.0946C48.516 43.8293 48.8055 43.6896 49.0708 43.7823L51.8841 44.7624Z" fill="#1F1F1F"/>
<path d="M51.9272 24.3052C51.945 24.3623 51.9526 24.422 51.9501 24.4829C51.9501 24.474 51.9501 24.4651 51.9501 24.4563C51.9501 24.4042 51.9425 24.3534 51.9272 24.3052Z" fill="#1F1F1F"/>
<path d="M51.4426 24.9653C51.6558 24.9653 51.8463 24.832 51.9199 24.6314C51.9377 24.5832 51.9478 24.5324 51.9504 24.4829C51.9351 27.2708 49.523 29.5356 46.5574 29.5356C45.9671 29.5356 45.3856 29.4455 44.8296 29.2678C44.5617 29.1814 44.4144 28.8958 44.5008 28.6292C44.5135 28.5886 44.5312 28.5505 44.5528 28.5162C44.6722 28.322 44.9108 28.2268 45.1381 28.2991C45.5938 28.4451 46.0724 28.5187 46.5574 28.5187C48.7867 28.5187 50.6301 26.9674 50.9017 24.9653H51.4426Z" fill="#1F1F1F"/>
<path d="M51.9275 24.3052C51.9237 24.2925 51.9187 24.2786 51.9136 24.2659C51.9199 24.2786 51.9237 24.2925 51.9275 24.3052Z" fill="#1F1F1F"/>
<path d="M51.9097 24.257C51.9033 24.243 51.897 24.2303 51.8906 24.2189C51.8982 24.2316 51.9046 24.2443 51.9097 24.257Z" fill="#1F1F1F"/>
<path d="M51.888 24.2138C51.8816 24.2024 51.8753 24.1909 51.8677 24.1808C51.8766 24.1909 51.8829 24.2024 51.888 24.2138Z" fill="#1F1F1F"/>
<path d="M51.8019 24.097C51.7917 24.0881 51.7815 24.078 51.7701 24.0691L51.7485 24.05C51.7676 24.0653 51.7854 24.0805 51.8019 24.097Z" fill="#1F1F1F"/>
<path d="M51.1885 51.8782C51.6092 51.8782 51.9502 51.5371 51.9502 51.1165C51.9502 50.6958 51.6092 50.3547 51.1885 50.3547C50.7678 50.3547 50.4268 50.6958 50.4268 51.1165C50.4268 51.5371 50.7678 51.8782 51.1885 51.8782Z" fill="#1F1F1F"/>
<path d="M50.9015 24.9641H42.209V24.9654H50.9015V24.9641Z" fill="#1F1F1F"/>
<path d="M50.0535 23.9498H41.8523L41.8511 23.9485H50.0522L50.0535 23.9498Z" fill="#1F1F1F"/>
<path d="M46.1104 9.72974C46.531 9.72974 46.8721 9.3887 46.8721 8.96802C46.8721 8.54733 46.531 8.2063 46.1104 8.2063C45.6897 8.2063 45.3486 8.54733 45.3486 8.96802C45.3486 9.3887 45.6897 9.72974 46.1104 9.72974Z" fill="#1F1F1F"/>
<path d="M44.751 53.8484V53.9918C44.751 54.2711 44.5237 54.4997 44.2432 54.4997C44.0705 54.4997 43.9169 54.4133 43.8255 54.2813L43.795 54.2305C43.7569 54.1594 43.7354 54.0782 43.7354 53.9918V53.0676C43.7354 52.8924 43.8242 52.7375 43.9601 52.6461C44.0413 52.5916 44.1391 52.5598 44.2432 52.5598C44.5237 52.5598 44.751 52.7871 44.751 53.0676V53.3495L44.5288 53.4853L44.751 53.8484Z" fill="#1F1F1F"/>
<path d="M44.751 53.3495V53.8484L44.5288 53.4853L44.751 53.3495Z" fill="#1F1F1F"/>
<path d="M44.751 49.2489V49.5485C44.751 49.8278 44.5237 50.0563 44.2432 50.0563C44.1556 50.0563 44.073 50.0334 44.002 49.9954C43.8433 49.909 43.7354 49.7415 43.7354 49.5485V48.6941L44.751 49.2489Z" fill="#1F1F1F"/>
<path d="M44.751 30.0435V49.2489L43.7354 48.6941V30.0435C43.7354 29.7629 43.9626 29.5356 44.2432 29.5356C44.5237 29.5356 44.751 29.7629 44.751 30.0435Z" fill="#1F1F1F"/>
<path d="M44.751 18.1454V18.3777C44.751 18.6583 44.5237 18.8855 44.2432 18.8855C44.12 18.8855 44.007 18.8424 43.9194 18.77C43.8064 18.6761 43.7354 18.5351 43.7354 18.3777V17.2885L44.751 18.1454Z" fill="#1F1F1F"/>
<path d="M44.7508 15.1696V18.1454L43.7352 17.2885V15.1696C43.7352 13.8506 42.6586 12.7778 41.337 12.7778H21.9284C20.6106 12.7778 19.5366 13.8506 19.5366 15.1696V17.715L18.521 18.5732V15.1696C18.521 13.2907 20.0495 11.7622 21.9284 11.7622H41.337C43.2197 11.7622 44.7508 13.2907 44.7508 15.1696Z" fill="#1F1F1F"/>
<path d="M44.243 18.8855C44.5235 18.8855 44.7508 18.6583 44.7508 18.3777V18.1454L51.7484 24.05C51.6634 23.9865 51.558 23.9484 51.4425 23.9484H50.0523L43.918 18.7713L43.9192 18.77C44.0068 18.8424 44.1198 18.8855 44.243 18.8855Z" fill="#1F1F1F"/>
<path d="M44.2429 50.0563C44.5234 50.0563 44.7507 49.8278 44.7507 49.5485V49.2489L47.5271 50.7635C47.6858 50.8498 47.7874 51.0148 47.7912 51.1964C47.7963 51.3779 47.7036 51.548 47.5487 51.642L44.7507 53.3495V53.0677C44.7507 52.7871 44.5234 52.5598 44.2429 52.5598C44.1388 52.5598 44.041 52.5916 43.9598 52.6462L43.9585 52.6436L46.269 51.2332L44.0017 49.9954C44.0728 50.0335 44.1553 50.0563 44.2429 50.0563Z" fill="#1F1F1F"/>
<path d="M44.87 55.9926L43.8252 54.2813C43.9166 54.4133 44.0702 54.4997 44.2429 54.4997C44.5234 54.4997 44.7507 54.2711 44.7507 53.9918V53.8484L45.7371 55.4632C45.8831 55.7032 45.8069 56.0155 45.5683 56.1615C45.4857 56.2123 45.3943 56.2364 45.3042 56.2364C45.1328 56.2364 44.9665 56.1488 44.87 55.9926Z" fill="#1F1F1F"/>
<path d="M43.338 53.1972C43.3698 53.0652 43.4523 52.9534 43.5666 52.8823L43.9588 52.6437L43.9601 52.6462C43.8243 52.7376 43.7354 52.8925 43.7354 53.0677V53.9919C43.7354 54.0782 43.757 54.1595 43.7951 54.2306L43.3977 53.5806C43.3279 53.4663 43.3063 53.328 43.338 53.1972Z" fill="#1F1F1F"/>
<path d="M43.0191 59.0014C43.141 59.2553 43.0344 59.5587 42.7805 59.6793C42.6408 59.7466 42.4974 59.8038 42.3501 59.8482L41.7979 58.943C41.987 58.9075 42.1686 58.8465 42.3412 58.764C42.5723 58.6523 42.8439 58.7323 42.9823 58.9367C42.9963 58.957 43.009 58.9786 43.0191 59.0014Z" fill="#1F1F1F"/>
<path d="M42.9836 58.9355L43.6958 60.1035L46.3783 58.4683L46.0381 57.9059C45.8921 57.666 45.9683 57.3537 46.2082 57.2089C46.4494 57.0629 46.7604 57.1391 46.9052 57.3791L47.5095 58.3744C47.6555 58.6143 47.5793 58.9253 47.3406 59.0713L43.791 61.2346C43.7085 61.2854 43.6171 61.3083 43.527 61.3083C43.3556 61.3083 43.1893 61.2219 43.0928 61.0658L42.3501 59.8483C42.4974 59.8039 42.6408 59.7467 42.7805 59.6794C43.0344 59.5588 43.141 59.2554 43.0191 59.0015C43.009 58.9787 42.9963 58.9571 42.9823 58.9368L42.9836 58.9355Z" fill="#1F1F1F"/>
<path d="M40.7147 55.2145L42.9834 58.9355L42.9821 58.9368C42.8438 58.7324 42.5721 58.6524 42.341 58.7641C42.1684 58.8466 41.9868 58.9076 41.7977 58.9431L40.1117 56.1768L37.3111 57.8881C37.1562 57.9834 36.962 57.9872 36.8033 57.9008C36.6434 57.8132 36.5431 57.6482 36.5393 57.4667L36.5151 56.4485H37.0115C37.2883 56.4485 37.513 56.2276 37.5193 55.9534L37.5333 56.5627L40.0165 55.0457C40.1308 54.9758 40.2691 54.9542 40.4012 54.986C40.5319 55.0177 40.6449 55.1002 40.7147 55.2145Z" fill="#1F1F1F"/>
<path d="M41.7978 58.9431L42.3501 59.8483C42.0276 59.9524 41.6887 60.0032 41.337 60.0032H21.9284C20.0495 60.0032 18.521 58.4747 18.521 56.5957V49.3391C18.521 49.0598 18.7482 48.8313 19.0288 48.8313C19.3094 48.8313 19.5366 49.0598 19.5366 49.3391V56.5957C19.5366 57.9148 20.6106 58.9875 21.9284 58.9875H41.337C41.4944 58.9875 41.648 58.9723 41.7978 58.9431Z" fill="#1F1F1F"/>
<path d="M42.2093 24.9641V24.9654H42.175V24.4715C42.175 24.4665 42.175 24.4626 42.175 24.4576C42.175 24.2494 42.0506 24.0716 41.8716 23.9929C41.8716 23.9878 41.869 23.984 41.8665 23.979L41.8525 23.9498H50.0537L50.0524 23.9485H51.4426C51.5581 23.9485 51.6635 23.9866 51.7485 24.05L51.7701 24.0691C51.7815 24.078 51.7917 24.0881 51.8019 24.097C51.8272 24.1237 51.8501 24.1516 51.8679 24.1808C51.8755 24.191 51.8818 24.2024 51.8882 24.2138C51.8895 24.2151 51.8907 24.2176 51.8907 24.2189C51.8971 24.2303 51.9034 24.243 51.9098 24.257C51.911 24.2595 51.9123 24.2633 51.9136 24.2659C51.9187 24.2786 51.9237 24.2925 51.9275 24.3052C51.9428 24.3535 51.9504 24.4042 51.9504 24.4563C51.9504 24.4652 51.9504 24.4741 51.9504 24.483C51.9478 24.5325 51.9377 24.5833 51.9199 24.6315C51.8463 24.8321 51.6559 24.9654 51.4426 24.9654H50.9018V24.9641H42.2093Z" fill="#1F1F1F"/>
<path d="M42.1748 24.9653H42.2091C42.364 26.1003 43.0292 27.1299 44.055 27.7875C44.2911 27.9386 44.3584 28.2521 44.2073 28.4883C44.0563 28.7244 43.7414 28.793 43.5065 28.6419C42.9835 28.3067 42.5354 27.8929 42.1748 27.4219V24.9653Z" fill="#1F1F1F"/>
<path d="M42.1748 47.8436V48.1458C42.1748 48.4263 41.9476 48.6536 41.667 48.6536C41.5883 48.6536 41.5146 48.6358 41.4486 48.6041L41.3902 48.571L41.3826 48.5672C41.248 48.4758 41.1592 48.3209 41.1592 48.1458V47.2888L42.1748 47.8436Z" fill="#1F1F1F"/>
<path d="M42.1748 40.1985V47.8436L41.1592 47.2888V40.1985C41.1592 39.9192 41.3864 39.6907 41.667 39.6907C41.9476 39.6907 42.1748 39.9192 42.1748 40.1985Z" fill="#1F1F1F"/>
<path d="M42.1748 27.4219V38.675C42.1748 38.9555 41.9476 39.1828 41.667 39.1828C41.3864 39.1828 41.1592 38.9555 41.1592 38.675V27.4206C41.3534 27.1654 41.5248 26.8937 41.667 26.6068C41.8079 26.8937 41.9793 27.1667 42.1748 27.4219Z" fill="#1F1F1F"/>
<path d="M42.1748 24.9653V27.4219C41.9793 27.1667 41.8079 26.8938 41.667 26.6068C41.9196 26.099 42.0859 25.5468 42.1481 24.9653H42.1748Z" fill="#1F1F1F"/>
<path d="M42.1751 24.4714V24.9653H42.1484C42.1649 24.8028 42.1751 24.6377 42.1751 24.4714Z" fill="#1F1F1F"/>
<path d="M42.148 24.9653C42.0858 25.5468 41.9195 26.099 41.6669 26.6068C41.4117 26.0939 41.2479 25.5404 41.187 24.9653H42.148Z" fill="#1F1F1F"/>
<path d="M41.8714 23.9929C41.9856 24.2417 41.8815 24.5375 41.634 24.6594C41.5629 24.6937 41.4867 24.7114 41.4105 24.7114C41.3242 24.7114 41.2379 24.6886 41.163 24.6454C41.1604 24.5819 41.1592 24.5197 41.1592 24.4563C41.1592 24.3166 41.2163 24.1909 41.3077 24.0982C41.3534 24.0525 41.408 24.0145 41.4689 23.9891C41.5223 23.9662 41.5807 23.9522 41.6416 23.9497H41.667C41.7368 23.9497 41.8041 23.9637 41.865 23.9891C41.8676 23.9903 41.8701 23.9916 41.8714 23.9929Z" fill="#1F1F1F"/>
<path d="M41.8716 23.9929C41.8703 23.9916 41.8678 23.9903 41.8652 23.9891C41.8119 23.9662 41.7548 23.9522 41.6938 23.9497H41.8525L41.8665 23.9789C41.869 23.984 41.8716 23.9878 41.8716 23.9929Z" fill="#1F1F1F"/>
<path d="M41.8523 23.9498H41.6937C41.6848 23.9485 41.6759 23.9485 41.667 23.9485H41.8511L41.8523 23.9498Z" fill="#1F1F1F"/>
<path d="M37.8536 15.8247L41.8514 23.9484H41.6673C41.6584 23.9484 41.6508 23.9484 41.6419 23.9497H40.7202L36.7212 15.8247H37.8536Z" fill="#1F1F1F"/>
<path d="M41.6937 23.9497C41.7546 23.9522 41.8117 23.9662 41.865 23.9891C41.8041 23.9637 41.7368 23.9497 41.667 23.9497H41.6937Z" fill="#1F1F1F"/>
<path d="M41.6937 23.9498H41.667H41.6416C41.6505 23.9485 41.6581 23.9485 41.667 23.9485C41.6759 23.9485 41.6848 23.9485 41.6937 23.9498Z" fill="#1F1F1F"/>
<path d="M44.0018 49.9954L41.4487 48.604C41.5147 48.6357 41.5884 48.6535 41.6671 48.6535C41.9477 48.6535 42.1749 48.4262 42.1749 48.1457V47.8435L43.7352 48.6941V49.5485C43.7352 49.7415 43.8431 49.909 44.0018 49.9954Z" fill="#1F1F1F"/>
<path d="M40.7202 23.9497H41.6419C41.581 23.9522 41.5226 23.9662 41.4692 23.9891C41.4083 24.0145 41.3537 24.0513 41.308 24.0982C41.2166 24.1909 41.1595 24.3166 41.1595 24.4563V24.6441C41.0731 24.5959 41.0008 24.521 40.9551 24.4271L40.7202 23.9497Z" fill="#1F1F1F"/>
<path d="M41.3901 48.571L41.4485 48.6041C41.4282 48.5952 41.4079 48.5837 41.3901 48.571Z" fill="#1F1F1F"/>
<path d="M41.6341 24.6594C41.8816 24.5375 41.9857 24.2417 41.8715 23.9929C42.0505 24.0716 42.1749 24.2494 42.1749 24.4576C42.1749 24.4626 42.1749 24.4665 42.1749 24.4715C42.1749 24.6378 42.1647 24.8029 42.1482 24.9654H41.1872C41.1745 24.8587 41.1669 24.7521 41.1631 24.6455C41.238 24.6886 41.3243 24.7115 41.4106 24.7115C41.4868 24.7115 41.563 24.6937 41.6341 24.6594Z" fill="#1F1F1F"/>
<path d="M41.3076 24.0982C41.3533 24.0512 41.4079 24.0144 41.4688 23.989C41.4079 24.0144 41.3533 24.0525 41.3076 24.0982Z" fill="#1F1F1F"/>
<path d="M41.1871 24.9653C41.248 25.5404 41.4118 26.0939 41.667 26.6068C41.5248 26.8938 41.3534 27.1654 41.1592 27.4206V24.9653H41.1871Z" fill="#1F1F1F"/>
<path d="M41.163 24.6454C41.1668 24.7521 41.1744 24.8587 41.1871 24.9654H41.1592V24.6442C41.1604 24.6454 41.1617 24.6454 41.163 24.6454Z" fill="#1F1F1F"/>
<path d="M41.163 24.6455C41.1617 24.6455 41.1604 24.6455 41.1592 24.6442V24.4563C41.1592 24.5198 41.1604 24.582 41.163 24.6455Z" fill="#1F1F1F"/>
<path d="M41.1249 24.9653H32.4337H32.3994V24.4575V23.9497H40.7199L40.9548 24.4271C41.0005 24.521 41.0728 24.5959 41.1592 24.6441V24.9653H41.1249Z" fill="#1F1F1F"/>
<path d="M40.5525 7.27692C40.7861 7.4318 40.8496 7.74792 40.6935 7.98024L38.6622 11.0271C38.5645 11.1744 38.4032 11.2531 38.2394 11.2531C38.143 11.2531 38.0452 11.2264 37.9576 11.168C37.724 11.0132 37.6618 10.697 37.818 10.4647L39.8492 7.41784C40.0041 7.18424 40.3189 7.12077 40.5525 7.27692Z" fill="#1F1F1F"/>
<path d="M43.9179 18.7713L41.1566 16.4405C40.7021 16.0406 40.1207 15.8248 39.5139 15.8248H37.8533L37.8521 15.8235H39.3209C39.6027 15.8235 39.8287 15.5962 39.8287 15.3157C39.8287 15.0364 39.6027 14.8079 39.3209 14.8079H39.5139C40.3683 14.8079 41.1871 15.1151 41.8193 15.6711L43.7351 17.2885V18.3778C43.7351 18.5352 43.8062 18.6761 43.9191 18.7701L43.9179 18.7713Z" fill="#1F1F1F"/>
<path d="M38.5757 35.7106V45.1953C38.5757 45.4124 38.5439 45.6257 38.4792 45.8263L37.5524 45.321C37.5575 45.2804 37.5601 45.2385 37.5601 45.1953V35.7106C37.5601 35.1051 37.0675 34.6138 36.4619 34.6138H30.6221C30.3415 34.6138 30.1143 34.3853 30.1143 34.106C30.1143 33.8254 30.3415 33.5981 30.6221 33.5981H36.4619C37.6273 33.5981 38.5757 34.5452 38.5757 35.7106Z" fill="#1F1F1F"/>
<path d="M37.5528 45.321L38.4795 45.8263C38.4262 46.0002 38.3488 46.1666 38.2497 46.3202C38.1533 46.47 37.9895 46.5512 37.8232 46.5512C37.7394 46.5512 37.6569 46.5322 37.5794 46.489C37.5693 46.4839 37.5579 46.4776 37.5477 46.47C37.3128 46.3176 37.2443 46.0028 37.3966 45.7679C37.483 45.6346 37.5363 45.4848 37.5528 45.321Z" fill="#1F1F1F"/>
<path d="M37.8523 15.8235L37.8536 15.8248H36.7212V15.8235H37.8523Z" fill="#1F1F1F"/>
<path d="M37.4928 15.0922L37.8521 15.8234H36.7209L36.5813 15.5403C36.4581 15.289 36.561 14.9843 36.8136 14.8611C36.886 14.8256 36.9621 14.8091 37.037 14.8091C37.2237 14.8091 37.4052 14.9132 37.4928 15.0922Z" fill="#1F1F1F"/>
<path d="M41.3829 48.5672L37.5781 46.4915L37.5794 46.489C37.6568 46.5322 37.7394 46.5512 37.8231 46.5512C37.9895 46.5512 38.1532 46.4699 38.2497 46.3201C38.3487 46.1665 38.4262 46.0002 38.4795 45.8263L41.1595 47.2888V48.1457C41.1595 48.3209 41.2483 48.4758 41.3829 48.5672Z" fill="#1F1F1F"/>
<path d="M37.5181 55.9026C37.5193 55.9153 37.5193 55.928 37.5193 55.9407C37.5193 55.9445 37.5193 55.9496 37.5193 55.9534L37.5181 55.9026Z" fill="#1F1F1F"/>
<path d="M37.5181 55.9026L37.5193 55.9534C37.513 56.2276 37.2883 56.4485 37.0115 56.4485H36.5151L36.4897 55.4329H37.0115C37.2743 55.4329 37.4901 55.6334 37.5168 55.8886L37.5181 55.9026Z" fill="#1F1F1F"/>
<path d="M37.4128 51.5265L37.5169 55.8886C37.4902 55.6334 37.2744 55.4328 37.0116 55.4328H36.4898L36.3972 51.5506C36.3895 51.2713 36.6117 51.0377 36.8923 51.0314C37.1868 51.0034 37.4052 51.2459 37.4128 51.5265Z" fill="#1F1F1F"/>
<path d="M37.0371 14.8079H39.321C39.6028 14.8079 39.8288 15.0364 39.8288 15.3157C39.8288 15.5962 39.6028 15.8235 39.321 15.8235H37.8522L37.4929 15.0922C37.4053 14.9132 37.2237 14.8091 37.0371 14.8091V14.8079Z" fill="#1F1F1F"/>
<path d="M37.2861 46.6744C37.2925 46.7074 37.295 46.7391 37.295 46.7708C37.295 47.0108 37.1249 47.2228 36.8824 47.2685C36.7428 47.2952 36.6057 47.3079 36.4622 47.3079H36.2946L36.2705 46.2935H36.4622C36.5409 46.2935 36.6171 46.2859 36.692 46.2719C36.9713 46.2211 37.2341 46.4001 37.2861 46.6744Z" fill="#1F1F1F"/>
<path d="M37.2861 46.6743C37.2341 46.4001 36.9713 46.2211 36.692 46.2719C36.6171 46.2859 36.5409 46.2935 36.4622 46.2935H36.2705L36.2502 45.4785C36.2451 45.2969 36.3378 45.1268 36.4927 45.0316C36.6476 44.9376 36.8418 44.9326 37.0005 45.0201L37.5527 45.321C37.5362 45.4848 37.4829 45.6346 37.3966 45.7679C37.2442 46.0028 37.3128 46.3176 37.5477 46.47C37.5578 46.4776 37.5692 46.4839 37.5794 46.489L37.5781 46.4915L37.2861 46.3328L37.2976 46.7708H37.295C37.295 46.7391 37.2925 46.7074 37.2861 46.6743Z" fill="#1F1F1F"/>
<path d="M36.7209 15.8235H32.3994V15.8248H36.7209V15.8235Z" fill="#1F1F1F"/>
<path d="M36.5994 37.8435C36.6959 37.959 36.7352 38.1114 36.7085 38.2599L35.5837 44.3537C35.5393 44.5949 35.3298 44.7688 35.0848 44.7688H28.9009C28.6559 44.7688 28.4464 44.5949 28.4007 44.3537L27.2772 38.2599C27.2493 38.1114 27.2899 37.959 27.3864 37.8435C27.4829 37.7267 27.625 37.6594 27.7761 37.6594H29.7172C29.6017 37.973 29.5141 38.3145 29.457 38.675H28.3868L29.3237 43.7532H34.6621L35.599 38.675H34.5605C34.5237 38.3031 34.464 37.9641 34.3815 37.6594H36.2084C36.3594 37.6594 36.5029 37.7267 36.5994 37.8435Z" fill="#1F1F1F"/>
<path d="M36.49 55.4329L36.5154 56.4485H24.4638C22.8896 56.4485 21.6099 55.1688 21.6099 53.5946V34.1047C21.6099 33.8254 21.8358 33.5969 22.1177 33.5969C22.3982 33.5969 22.6255 33.8254 22.6255 34.1047V53.5946C22.6255 54.6089 23.4494 55.4329 24.4638 55.4329H36.49Z" fill="#1F1F1F"/>
<path d="M36.462 47.3078C36.6055 47.3078 36.7426 47.2951 36.8822 47.2684C37.1247 47.2227 37.2948 47.0107 37.2948 46.7708H37.2974L37.3723 49.8354C37.3786 50.116 37.1564 50.3483 36.8759 50.3559C36.8721 50.3559 36.8683 50.3559 36.8645 50.3559C36.589 50.3559 36.363 50.1363 36.3566 49.8608L36.2944 47.3078H36.462Z" fill="#1F1F1F"/>
<path d="M36.2704 46.2935L36.2945 47.3078H27.3215C26.1573 47.3078 25.209 46.3607 25.209 45.1953V35.7106C25.209 34.5452 26.1573 33.5981 27.3215 33.5981H28.591C28.8716 33.5981 29.0988 33.8254 29.0988 34.106C29.0988 34.3853 28.8716 34.6138 28.591 34.6138H27.3215C26.7172 34.6138 26.2246 35.1051 26.2246 35.7106V45.1953C26.2246 45.8009 26.7172 46.2935 27.3215 46.2935H36.2704Z" fill="#1F1F1F"/>
<path d="M34.5604 38.675C34.5921 38.9899 34.6086 39.3276 34.6086 39.6907C34.6086 39.9712 34.3813 40.1985 34.1008 40.1985C33.8202 40.1985 33.593 39.9712 33.593 39.6907C33.593 39.306 33.5752 38.9696 33.5435 38.675H34.5604Z" fill="#1F1F1F"/>
<path d="M34.5601 38.675H33.5432C33.4987 38.2586 33.4238 37.9248 33.3286 37.6594H34.3811C34.4636 37.9641 34.5232 38.3031 34.5601 38.675Z" fill="#1F1F1F"/>
<path d="M34.3811 37.6594H33.3286C33.0176 36.7936 32.4806 36.6438 31.9918 36.6438C31.5767 36.6438 31.1349 37.0208 30.8213 37.6594H29.7168C30.1624 36.4369 31.0054 35.6282 31.9918 35.6282C33.2182 35.6282 34.0167 36.3099 34.3811 37.6594Z" fill="#1F1F1F"/>
<path d="M33.5433 38.675H30.4888C30.5637 38.2904 30.6792 37.9476 30.8214 37.6594H33.3287C33.4239 37.9248 33.4988 38.2586 33.5433 38.675Z" fill="#1F1F1F"/>
<path d="M32.6533 8.71411V10.7454C32.6533 11.0259 32.4273 11.2532 32.1455 11.2532C31.8649 11.2532 31.6377 11.0259 31.6377 10.7454V8.71411C31.6377 8.43481 31.8649 8.2063 32.1455 8.2063C32.4273 8.2063 32.6533 8.43481 32.6533 8.71411Z" fill="#1F1F1F"/>
<path d="M32.6533 4.14502V7.19189C32.6533 7.47119 32.4273 7.69971 32.1455 7.69971C31.8649 7.69971 31.6377 7.47119 31.6377 7.19189V4.14502C31.6377 3.86445 31.8649 3.63721 32.1455 3.63721C32.4273 3.63721 32.6533 3.86445 32.6533 4.14502Z" fill="#1F1F1F"/>
<path d="M31.8916 26.6081C32.11 26.1688 32.2648 25.6966 32.3423 25.2002C32.3791 25.1304 32.3994 25.0504 32.3994 24.9653H32.4337C32.7041 26.9661 34.55 28.52 36.7793 28.52C39.0099 28.52 40.8558 26.9661 41.1249 24.9653H41.1592V27.4206C40.1778 28.7003 38.5808 29.5356 36.7793 29.5356C34.6211 29.5356 32.7536 28.3359 31.8916 26.6081Z" fill="#1F1F1F"/>
<path d="M32.3997 24.4575V24.9653H32.373C32.3908 24.799 32.3997 24.6289 32.3997 24.4575Z" fill="#1F1F1F"/>
<path d="M32.3994 23.9497V24.4575C32.3994 24.177 32.1734 23.9497 31.8916 23.9497H32.3994Z" fill="#1F1F1F"/>
<path d="M32.3994 15.8247V23.9497H31.8916H31.3838V15.8247H32.3994Z" fill="#1F1F1F"/>
<path d="M32.3994 15.8235H31.3838V15.8248H32.3994V15.8235Z" fill="#1F1F1F"/>
<path d="M32.3994 24.9653C32.3994 25.0504 32.3791 25.1304 32.3423 25.2002C32.3537 25.1228 32.3639 25.044 32.3728 24.9653H32.3994Z" fill="#1F1F1F"/>
<path d="M32.3994 15.8234H31.3838C31.3851 15.5429 31.611 15.3169 31.8916 15.3169C32.1734 15.3169 32.3981 15.5429 32.3994 15.8234Z" fill="#1F1F1F"/>
<path d="M32.3994 24.4575C32.3994 24.6289 32.3905 24.799 32.3728 24.9653H31.4104C31.3927 24.799 31.3838 24.6289 31.3838 24.4575C31.3838 24.177 31.611 23.9497 31.8916 23.9497C32.1734 23.9497 32.3994 24.177 32.3994 24.4575Z" fill="#1F1F1F"/>
<path d="M32.3729 24.9653C32.3641 25.044 32.3539 25.1228 32.3425 25.2002C32.2574 25.3627 32.0886 25.4731 31.8918 25.4731C31.6963 25.4731 31.5274 25.3627 31.4411 25.2002C31.4297 25.1228 31.4195 25.0453 31.4106 24.9653H32.3729Z" fill="#1F1F1F"/>
<path d="M32.3423 25.2002C32.2648 25.6966 32.11 26.1688 31.8916 26.6081C31.6732 26.1688 31.5196 25.6966 31.4409 25.2002C31.5272 25.3627 31.6961 25.4731 31.8916 25.4731C32.0884 25.4731 32.2572 25.3627 32.3423 25.2002Z" fill="#1F1F1F"/>
<path d="M31.3838 23.9497H31.8916C31.611 23.9497 31.3838 24.177 31.3838 24.4575V23.9497Z" fill="#1F1F1F"/>
<path d="M31.4104 24.9653C31.4193 25.0453 31.4295 25.1228 31.4409 25.2002C31.4054 25.1304 31.3838 25.0504 31.3838 24.9653H31.4104Z" fill="#1F1F1F"/>
<path d="M31.3838 24.4575C31.3838 24.6289 31.3927 24.799 31.4104 24.9653H31.3838V24.4575Z" fill="#1F1F1F"/>
<path d="M31.3841 15.8235H27.0601V15.8248H31.3841V15.8235Z" fill="#1F1F1F"/>
<path d="M31.3498 24.9653H26.4126C26.132 24.9653 25.9048 24.7368 25.9048 24.4575C25.9048 24.177 26.132 23.9497 26.4126 23.9497H31.3841V24.4575V24.9653H31.3498Z" fill="#1F1F1F"/>
<path d="M29.7168 37.6594H30.8213C30.6791 37.9476 30.5636 38.2904 30.4887 38.675H29.4565C29.5137 38.3145 29.6013 37.973 29.7168 37.6594Z" fill="#1F1F1F"/>
<path d="M29.4569 38.675H30.4891C30.4269 38.9874 30.3926 39.3276 30.3926 39.6907C30.3926 39.9712 30.1653 40.1985 29.8848 40.1985C29.6042 40.1985 29.377 39.9712 29.377 39.6907C29.377 39.339 29.4049 38.9988 29.4569 38.675Z" fill="#1F1F1F"/>
<path d="M26.9771 14.8637C27.2272 14.9894 27.3275 15.2953 27.2006 15.5454L27.0597 15.8234H25.9209L26.2941 15.0871C26.383 14.9106 26.5607 14.8091 26.7461 14.8091C26.8235 14.8091 26.9022 14.8269 26.9771 14.8637Z" fill="#1F1F1F"/>
<path d="M27.0597 15.8235H25.9209V15.8248H27.0597V15.8235Z" fill="#1F1F1F"/>
<path d="M26.7461 14.8079H37.0369V14.8091C36.962 14.8091 36.8858 14.8256 36.8135 14.8612C36.5608 14.9843 36.458 15.289 36.5812 15.5404L36.7208 15.8235H32.3993C32.398 15.5429 32.1733 15.3169 31.8915 15.3169C31.6109 15.3169 31.385 15.5429 31.3837 15.8235H27.0597L27.2006 15.5455C27.3275 15.2954 27.2272 14.9894 26.9771 14.8637C26.9022 14.8269 26.8235 14.8091 26.7461 14.8091V14.8079Z" fill="#1F1F1F"/>
<path d="M24.4639 14.8079H26.7465V14.8091C26.5611 14.8091 26.3834 14.9107 26.2945 15.0872L25.9213 15.8235H24.4639C24.182 15.8235 23.9561 15.5962 23.9561 15.3157C23.9561 15.0364 24.182 14.8079 24.4639 14.8079Z" fill="#1F1F1F"/>
<path d="M25.9669 10.4647C26.123 10.697 26.0596 11.0132 25.826 11.168C25.7396 11.2264 25.6419 11.2531 25.5454 11.2531C25.3816 11.2531 25.2204 11.1744 25.1227 11.0271L23.0914 7.98024C22.9353 7.74792 22.9975 7.4318 23.2311 7.27692C23.4646 7.12077 23.7808 7.18424 23.9356 7.41784L25.9669 10.4647Z" fill="#1F1F1F"/>
<path d="M24.5283 23.9497C24.8089 23.9497 25.0361 24.177 25.0361 24.4575C25.0361 24.7368 24.8089 24.9653 24.5283 24.9653H22.6583H22.624V24.5781L22.9427 23.9497H24.5283Z" fill="#1F1F1F"/>
<path d="M22.9429 23.9497L22.6242 24.5781V24.4575C22.6242 24.2468 22.4973 24.0665 22.3145 23.9891C22.2611 23.9662 22.204 23.9522 22.1431 23.9497H22.9429Z" fill="#1F1F1F"/>
<path d="M22.6583 24.9653C22.9287 26.9661 24.7759 28.52 27.0064 28.52C29.2357 28.52 31.0804 26.9661 31.3495 24.9653H31.3838C31.3838 25.0504 31.4054 25.1304 31.4409 25.2002C31.5196 25.6966 31.6732 26.1688 31.8916 26.6081C31.0309 28.3359 29.1646 29.5356 27.0064 29.5356C25.2037 29.5356 23.6041 28.699 22.624 27.4181V24.9653H22.6583Z" fill="#1F1F1F"/>
<path d="M22.624 27.418V32.5812C22.624 32.8618 22.398 33.089 22.1162 33.089C21.8356 33.089 21.6084 32.8618 21.6084 32.5812V27.418C21.8039 27.1641 21.974 26.8925 22.1162 26.6068C22.2584 26.8925 22.4285 27.1641 22.624 27.418Z" fill="#1F1F1F"/>
<path d="M22.1162 26.6068C22.3688 26.099 22.5352 25.5468 22.5974 24.9653H22.624V27.4181C22.4285 27.1642 22.2584 26.8925 22.1162 26.6068Z" fill="#1F1F1F"/>
<path d="M22.5977 24.9653C22.6104 24.8384 22.6192 24.7102 22.623 24.5807L22.6243 24.5781V24.9653H22.5977Z" fill="#1F1F1F"/>
<path d="M22.6243 24.4575V24.5781L22.623 24.5807C22.6243 24.54 22.6243 24.4981 22.6243 24.4575Z" fill="#1F1F1F"/>
<path d="M22.3145 23.9891C22.4973 24.0665 22.6243 24.2468 22.6243 24.4575C22.6243 24.4981 22.6243 24.54 22.623 24.5807L22.5697 24.686C22.4808 24.8625 22.3018 24.9653 22.1165 24.9653C22.0403 24.9653 21.9616 24.9476 21.8879 24.9095C21.6556 24.7914 21.5528 24.5223 21.6404 24.2836C21.6467 24.2646 21.6556 24.2455 21.6645 24.2277L21.6772 24.2011C21.7331 24.1071 21.8181 24.0322 21.9184 23.9891C21.9793 23.9637 22.0466 23.9497 22.1165 23.9497C22.1863 23.9497 22.2536 23.9637 22.3145 23.9891Z" fill="#1F1F1F"/>
<path d="M22.6228 24.5807C22.6189 24.7102 22.6101 24.8384 22.5974 24.9654H22.1162C22.3016 24.9654 22.4806 24.8625 22.5694 24.6861L22.6228 24.5807Z" fill="#1F1F1F"/>
<path d="M22.5976 24.9653C22.5354 25.5468 22.369 26.099 22.1164 26.6068C21.8638 26.099 21.6975 25.5468 21.6353 24.9653H22.1164H22.5976Z" fill="#1F1F1F"/>
<path d="M22.1429 23.9497C22.2038 23.9522 22.2609 23.9662 22.3143 23.9891C22.2533 23.9637 22.186 23.9497 22.1162 23.9497H22.1429Z" fill="#1F1F1F"/>
<path d="M22.1429 23.9498H22.1162H22.0908C22.0997 23.9485 22.1073 23.9485 22.1162 23.9485C22.1251 23.9485 22.134 23.9485 22.1429 23.9498Z" fill="#1F1F1F"/>
<path d="M22.1162 23.9484C22.1073 23.9484 22.0997 23.9484 22.0908 23.9497H21.8052L25.921 15.8247H27.0598L22.9427 23.9497H22.1429C22.134 23.9484 22.1251 23.9484 22.1162 23.9484Z" fill="#1F1F1F"/>
<path d="M22.0911 23.9497H22.1165C22.0467 23.9497 21.9794 23.9637 21.9185 23.9891C21.9718 23.9662 22.0302 23.9522 22.0911 23.9497Z" fill="#1F1F1F"/>
<path d="M21.8055 23.9497H22.0911C22.0302 23.9522 21.9718 23.9662 21.9185 23.9891C21.8182 24.0322 21.7331 24.1071 21.6772 24.2011L21.8055 23.9497Z" fill="#1F1F1F"/>
<path d="M21.677 24.201L21.6643 24.2277C21.6554 24.2455 21.6465 24.2645 21.6401 24.2836C21.6414 24.2747 21.6452 24.2671 21.6478 24.2594C21.6566 24.2391 21.6668 24.2201 21.677 24.201Z" fill="#1F1F1F"/>
<path d="M21.6479 24.2595C21.6453 24.2671 21.6415 24.2748 21.6402 24.2836C21.6364 24.29 21.6339 24.2976 21.6313 24.3052C21.6364 24.29 21.6415 24.2748 21.6479 24.2595Z" fill="#1F1F1F"/>
<path d="M21.6084 27.4181V24.9653H21.6351C21.6973 25.5468 21.8636 26.099 22.1162 26.6068C21.974 26.8925 21.8039 27.1642 21.6084 27.4181Z" fill="#1F1F1F"/>
<path d="M21.6084 24.9653V24.4575C21.6084 24.6289 21.6173 24.799 21.6351 24.9653H21.6084Z" fill="#1F1F1F"/>
<path d="M21.6084 24.4575C21.6084 24.4042 21.616 24.3534 21.6312 24.3052C21.6338 24.2975 21.6363 24.2899 21.6401 24.2836C21.5525 24.5222 21.6554 24.7914 21.8877 24.9094C21.9613 24.9475 22.04 24.9653 22.1162 24.9653H21.6351C21.6173 24.799 21.6084 24.6289 21.6084 24.4575Z" fill="#1F1F1F"/>
<path d="M21.6087 24.9653V27.4181C21.078 28.1125 20.3658 28.6762 19.5368 29.0469V28.7016C19.5368 28.4223 19.3096 28.1938 19.029 28.1938C18.9858 28.1938 18.9427 28.1988 18.9033 28.2103C20.329 27.6618 21.3776 26.4342 21.5757 24.9653H21.6087Z" fill="#1F1F1F"/>
<path d="M21.5756 24.9653H12.8831H12.341C12.1277 24.9653 11.9373 24.832 11.8649 24.6314C11.8472 24.5832 11.837 24.5324 11.8345 24.4829C11.8345 24.474 11.8345 24.4664 11.8345 24.4575C11.8345 24.4042 11.8421 24.3534 11.8573 24.3064C11.8611 24.2912 11.8662 24.2785 11.8726 24.2646C11.8726 24.262 11.8738 24.2595 11.8751 24.2569C11.8802 24.2442 11.8865 24.2315 11.8941 24.2188C11.8941 24.2163 11.8941 24.215 11.8967 24.2138C11.903 24.1998 11.9119 24.1858 11.9208 24.1731C11.9297 24.1605 11.9386 24.1478 11.9487 24.1351C11.9487 24.1338 11.95 24.1338 11.9513 24.1325C11.9614 24.1211 11.9716 24.1097 11.983 24.0982C11.9932 24.0868 12.0033 24.0779 12.0135 24.069L12.0186 24.0652C12.1062 23.9929 12.2191 23.9497 12.3423 23.9497H13.7299H21.8054L21.6771 24.2011C21.667 24.2201 21.6568 24.2392 21.6479 24.2595C21.6416 24.2747 21.6365 24.2899 21.6314 24.3052C21.6162 24.3534 21.6086 24.4042 21.6086 24.4575V24.9653H21.5756Z" fill="#1F1F1F"/>
<path d="M19.5366 18.8094V17.7151L21.9767 15.6546C22.6102 15.11 23.4239 14.8079 24.2656 14.8079H24.4637C24.1818 14.8079 23.9559 15.0364 23.9559 15.3157C23.9559 15.5962 24.1818 15.8235 24.4637 15.8235H25.9211V15.8248H24.2656C23.6677 15.8248 23.0888 16.038 22.6355 16.4278L19.3652 19.1903C19.4706 19.0976 19.5366 18.9605 19.5366 18.8094Z" fill="#1F1F1F"/>
<path d="M19.5366 29.0469V47.3078C19.5366 47.5884 19.3094 47.8156 19.0288 47.8156C18.7482 47.8156 18.521 47.5884 18.521 47.3078V29.3871C18.8752 29.3059 19.2142 29.1903 19.5366 29.0469Z" fill="#1F1F1F"/>
<path d="M19.5366 28.7015V29.0469C19.2142 29.1903 18.8752 29.3058 18.521 29.3871V28.7015C18.521 28.5035 18.6353 28.3296 18.8028 28.2483C18.8054 28.247 18.8079 28.247 18.8092 28.2458C18.8409 28.2344 18.8727 28.2229 18.9031 28.2102C18.9425 28.1988 18.9856 28.1937 19.0288 28.1937C19.3094 28.1937 19.5366 28.4222 19.5366 28.7015Z" fill="#1F1F1F"/>
<path d="M19.5366 17.7151V18.8094C19.5366 18.9605 19.4706 19.0976 19.3652 19.1903L19.3424 19.2093C19.2561 19.2766 19.1481 19.3172 19.0288 19.3172C18.7482 19.3172 18.521 19.09 18.521 18.8094V18.5733L19.5366 17.7151Z" fill="#1F1F1F"/>
<path d="M19.3425 19.2093L13.7299 23.9497H12.3423C12.2191 23.9497 12.1062 23.9929 12.0186 24.0652L18.5211 18.5732V18.8094C18.5211 19.0899 18.7483 19.3172 19.0289 19.3172C19.1482 19.3172 19.2562 19.2766 19.3425 19.2093Z" fill="#1F1F1F"/>
<path d="M18.903 28.2102C18.8726 28.2229 18.8408 28.2343 18.8091 28.2458C18.8383 28.2292 18.87 28.2178 18.903 28.2102Z" fill="#1F1F1F"/>
<path d="M18.803 28.2483C18.6354 28.3295 18.5212 28.5035 18.5212 28.7015V29.3871C18.1073 29.4848 17.6731 29.5356 17.2275 29.5356C16.6651 29.5356 16.1154 29.4543 15.5911 29.2944C15.3232 29.2131 15.1722 28.9288 15.2534 28.6609C15.3359 28.393 15.6203 28.2407 15.8869 28.3232C16.3147 28.4527 16.7654 28.52 17.2275 28.52C17.7823 28.52 18.3143 28.4235 18.803 28.2483Z" fill="#1F1F1F"/>
<path d="M16.1548 8.96667C16.4354 8.96667 16.6626 9.19392 16.6626 9.47449C16.6626 9.75505 16.4354 9.9823 16.1548 9.9823H15.3931V8.96667H16.1548Z" fill="#1F1F1F"/>
<path d="M16.472 44.0946C16.5647 44.3599 16.425 44.6494 16.1597 44.7408L4.48 48.8033C4.42414 48.8236 4.36829 48.8325 4.3137 48.8325C4.10295 48.8325 3.90618 48.7005 3.83381 48.491C3.74114 48.2257 3.88079 47.9362 4.14612 47.8448L15.8258 43.7823C16.0899 43.6896 16.3806 43.8293 16.472 44.0946Z" fill="#1F1F1F"/>
<path d="M15.6733 33.1259C15.9336 33.23 16.0605 33.5258 15.9564 33.7861C15.8777 33.9841 15.686 34.106 15.4854 34.106C15.4219 34.106 15.3585 34.0933 15.2962 34.0692L12.0158 32.759C11.7555 32.6549 11.6286 32.3591 11.7327 32.0989C11.8368 31.8386 12.1326 31.7129 12.3928 31.8158L15.6733 33.1259Z" fill="#1F1F1F"/>
<path d="M14.1182 49.3391C15.3788 49.3391 16.4033 50.3649 16.4033 51.6243C16.4033 52.8849 15.3788 53.9094 14.1182 53.9094C12.8588 53.9094 11.833 52.8849 11.833 51.6243C11.833 50.3649 12.8588 49.3391 14.1182 49.3391ZM15.3877 51.6243C15.3877 50.9248 14.8189 50.3547 14.1182 50.3547C13.4187 50.3547 12.8486 50.9248 12.8486 51.6243C12.8486 52.325 13.4187 52.8938 14.1182 52.8938C14.8189 52.8938 15.3877 52.325 15.3877 51.6243Z" fill="#1F1F1F"/>
<path d="M15.3931 9.9823V10.744C15.3931 11.0246 15.1658 11.2518 14.8853 11.2518C14.6047 11.2518 14.3774 11.0246 14.3774 10.744V9.9823H15.3931Z" fill="#1F1F1F"/>
<path d="M15.3931 8.96667H14.3774V9.9823H15.3931V8.96667Z" fill="#1F1F1F"/>
<path d="M15.3931 8.20496V8.96667H14.3774V8.20496C14.3774 7.92439 14.6047 7.69714 14.8853 7.69714C15.1658 7.69714 15.3931 7.92439 15.3931 8.20496Z" fill="#1F1F1F"/>
<path d="M14.9775 38.675C15.2581 38.675 15.4854 38.9036 15.4854 39.1829C15.4854 39.4634 15.2581 39.6907 14.9775 39.6907H10.4072C10.1254 39.6907 9.89941 39.4634 9.89941 39.1829C9.89941 38.9036 10.1254 38.675 10.4072 38.675H14.9775Z" fill="#1F1F1F"/>
<path d="M14.3774 8.96667V9.9823H13.6157C13.3352 9.9823 13.1079 9.75505 13.1079 9.47449C13.1079 9.19392 13.3352 8.96667 13.6157 8.96667H14.3774Z" fill="#1F1F1F"/>
<path d="M12.5947 56.4485C13.0154 56.4485 13.3564 56.1075 13.3564 55.6868C13.3564 55.2661 13.0154 54.925 12.5947 54.925C12.174 54.925 11.833 55.2661 11.833 55.6868C11.833 56.1075 12.174 56.4485 12.5947 56.4485Z" fill="#1F1F1F"/>
<path d="M13.5179 28.1417C12.4388 27.1807 11.8421 25.8807 11.8345 24.4829C11.837 24.5324 11.8472 24.5832 11.8649 24.6314C11.9373 24.832 12.1277 24.9653 12.341 24.9653H12.8831C13.005 25.8857 13.4595 26.73 14.1933 27.3838C14.4015 27.5704 14.4205 27.8916 14.2339 28.0998C14.046 28.3105 13.7261 28.3283 13.5179 28.1417Z" fill="#1F1F1F"/>
<path d="M11.9829 24.0983C11.9715 24.1097 11.9613 24.1211 11.9512 24.1325C11.9613 24.1198 11.9715 24.1084 11.9829 24.0983Z" fill="#1F1F1F"/>
<path d="M11.9488 24.135C11.9387 24.1477 11.9298 24.1604 11.9209 24.1731C11.9298 24.1591 11.9387 24.1464 11.9488 24.135Z" fill="#1F1F1F"/>
<path d="M11.8727 24.2645C11.8663 24.2785 11.8612 24.2912 11.8574 24.3064C11.8612 24.2925 11.8663 24.2785 11.8727 24.2645Z" fill="#1F1F1F"/>
<path d="M11.8574 24.3064C11.8421 24.3534 11.8345 24.4041 11.8345 24.4575C11.8345 24.4664 11.8345 24.474 11.8345 24.4829C11.832 24.4232 11.8383 24.3635 11.8574 24.3064Z" fill="#1F1F1F"/>
<path d="M10.9002 31.2165C11.1604 31.3206 11.2874 31.6164 11.1833 31.8766C11.1033 32.0747 10.9128 32.1966 10.7123 32.1966C10.6488 32.1966 10.5853 32.1839 10.5231 32.1597L5.14029 30.0066C4.88004 29.9025 4.75308 29.6067 4.85718 29.3465C4.96129 29.0862 5.25963 28.9593 5.51734 29.0634L10.9002 31.2165Z" fill="#1F1F1F"/>
<path d="M9.28027 19.0138C9.51768 19.1623 9.59004 19.4759 9.4415 19.7133C9.29297 19.952 8.97939 20.0243 8.74072 19.8758C8.47285 19.7082 8.24307 19.4962 8.05898 19.2524C7.91553 19.4441 7.74414 19.6143 7.55371 19.759C7.61211 19.8034 7.66924 19.8504 7.7251 19.8999C7.9333 20.0878 7.95107 20.409 7.76318 20.6172C7.66289 20.7289 7.52451 20.786 7.38486 20.786C7.26426 20.786 7.14238 20.7429 7.0459 20.6553C6.76787 20.4052 6.40732 20.2681 6.03027 20.2681C5.74844 20.2681 5.52246 20.0396 5.52246 19.7603C5.52246 19.4797 5.74844 19.2524 6.03027 19.2524C6.86943 19.2524 7.55371 18.5682 7.55371 17.729C7.55371 17.4484 7.77969 17.2212 8.06152 17.2212C8.34209 17.2212 8.56934 17.4484 8.56934 17.729C8.56934 18.2559 8.83467 18.7357 9.28027 19.0138Z" fill="#1F1F1F"/>
</svg>
