<svg width="47" height="47" viewBox="0 0 47 47" fill="none" xmlns="http://www.w3.org/2000/svg">
<g clip-path="url(#clip0_54_1546)">
<path d="M30.1094 16.8906H16.8906C15.676 16.8906 14.6875 17.8791 14.6875 19.0938V27.9062C14.6875 29.1209 15.676 30.1094 16.8906 30.1094H30.1094C31.324 30.1094 32.3125 29.1209 32.3125 27.9062V19.0938C32.3125 17.8791 31.324 16.8906 30.1094 16.8906ZM22.0312 18.3594H24.9688V19.8281H22.0312V18.3594ZM24.9688 28.6406H22.0312V27.1719H24.9688V28.6406ZM30.8438 27.9062C30.8438 28.3116 30.5147 28.6406 30.1094 28.6406H26.4375V25.7031H20.5625V28.6406H16.8906C16.4852 28.6406 16.1562 28.3116 16.1562 27.9062V19.0938C16.1562 18.6884 16.4852 18.3594 16.8906 18.3594H20.5625V21.2969H26.4375V18.3594H30.1094C30.5147 18.3594 30.8438 18.6884 30.8438 19.0938V27.9062Z" fill="#1F1F1F"/>
<path d="M46.2656 21.2969H44.683C43.652 11.3094 35.6906 3.34802 25.7031 2.31695V0.734375H24.2344V2.22148C23.9898 2.21341 23.746 2.20312 23.5 2.20312C23.2547 2.20312 23.0102 2.21194 22.7656 2.22075V0.734375H21.2969V2.31916C19.4874 2.50569 17.7168 2.92648 16.0057 3.57127C14.3945 1.83153 12.0996 0.734375 9.54688 0.734375C4.68752 0.734375 0.734375 4.68752 0.734375 9.54688C0.734375 12.0996 1.83153 14.3945 3.57127 16.0057C2.92648 17.7168 2.50642 19.4874 2.31916 21.2969H0.734375V22.7656H2.22075C2.21194 23.0102 2.20312 23.2547 2.20312 23.5C2.20312 23.746 2.21341 23.9898 2.22148 24.2344H0.734375V25.7031H2.31695C3.34802 35.6906 11.3094 43.652 21.2969 44.683V46.2656H22.7656V44.7785C23.0102 44.7866 23.254 44.7969 23.5 44.7969C23.7453 44.7969 23.9898 44.7881 24.2344 44.7793V46.2656H25.7031V44.6808C27.5126 44.4943 29.2832 44.0735 30.9943 43.4287C32.6055 45.1685 34.9004 46.2656 37.4531 46.2656C42.3125 46.2656 46.2656 42.3125 46.2656 37.4531C46.2656 34.9004 45.1685 32.6055 43.4287 30.9943C44.0735 29.2825 44.4943 27.5126 44.6808 25.7031H46.2656V24.2344H44.7793C44.7881 23.9898 44.7969 23.7453 44.7969 23.5C44.7969 23.254 44.7866 23.0102 44.7785 22.7656H46.2656V21.2969ZM43.2025 21.2969H41.722C40.7167 12.9316 34.0684 6.28331 25.7031 5.27722V3.79745C34.8791 4.81677 42.1832 12.1209 43.2025 21.2969ZM40.3723 22.7656C40.3825 23.0094 40.3906 23.254 40.3906 23.5C40.3906 23.746 40.3679 23.9898 40.3576 24.2344H38.9219V25.7031H40.2298C40.0881 26.7856 39.8413 27.849 39.4903 28.8881C38.8352 28.7317 38.1552 28.6406 37.4531 28.6406C32.5938 28.6406 28.6406 32.5938 28.6406 37.4531C28.6406 38.1552 28.7317 38.8352 28.8881 39.491C27.8497 39.8413 26.7856 40.0881 25.7031 40.2305V38.9219H24.2344V40.3576C23.9898 40.3679 23.746 40.3906 23.5 40.3906C23.254 40.3906 23.0094 40.3825 22.7656 40.3723V38.9219H21.2969V40.2423C13.7431 39.2531 7.74692 33.2569 6.75772 25.7031H8.07812V24.2344H6.62773C6.61745 23.9906 6.60938 23.746 6.60938 23.5C6.60938 23.254 6.63214 23.0102 6.64242 22.7656H8.07812V21.2969H6.7702C6.91194 20.2144 7.15869 19.151 7.50972 18.1119C8.16478 18.2683 8.84481 18.3594 9.54688 18.3594C14.4062 18.3594 18.3594 14.4062 18.3594 9.54688C18.3594 8.84481 18.2683 8.16478 18.1119 7.50898C19.151 7.15869 20.2144 6.91194 21.2969 6.7702V8.07812H22.7656V6.64242C23.0102 6.63214 23.254 6.60938 23.5 6.60938C23.746 6.60938 23.9906 6.61745 24.2344 6.62773V8.07812H25.7031V6.75772C33.2569 7.74692 39.2531 13.7431 40.2423 21.2969H38.9219V22.7656H40.3723ZM4.56414 14.9262C5.12227 12.6393 7.15869 11.0156 9.54688 11.0156C11.9351 11.0156 13.9715 12.6393 14.5296 14.9262C13.2188 16.1408 11.4709 16.8906 9.54688 16.8906C7.62281 16.8906 5.875 16.1408 4.56414 14.9262ZM7.34375 7.34375C7.34375 6.12909 8.33222 5.14062 9.54688 5.14062C10.7615 5.14062 11.75 6.12909 11.75 7.34375C11.75 8.55841 10.7615 9.54688 9.54688 9.54688C8.33222 9.54688 7.34375 8.55841 7.34375 7.34375ZM23.5 3.67188C23.746 3.67188 23.9906 3.68142 24.2344 3.69023V5.15898C23.9906 5.14944 23.746 5.14062 23.5 5.14062C23.254 5.14062 23.0109 5.16412 22.7656 5.17367V3.6895C23.0102 3.68069 23.2547 3.67188 23.5 3.67188ZM21.2969 3.79819V5.28897C20.0609 5.43805 18.847 5.71417 17.6625 6.1122C17.4649 5.64661 17.2226 5.20525 16.9508 4.78445C18.3616 4.28948 19.8156 3.96269 21.2969 3.79819ZM9.54688 2.20312C13.5962 2.20312 16.8906 5.49753 16.8906 9.54688C16.8906 11.0575 16.4309 12.4623 15.6459 13.6315C14.968 11.9799 13.6572 10.6903 12.0291 10.0323C12.7554 9.36108 13.2188 8.40859 13.2188 7.34375C13.2188 5.31908 11.5715 3.67188 9.54688 3.67188C7.5222 3.67188 5.875 5.31908 5.875 7.34375C5.875 8.40859 6.33839 9.36108 7.06469 10.0323C5.43584 10.6903 4.12572 11.9791 3.44789 13.6315C2.66284 12.4623 2.20312 11.0575 2.20312 9.54688C2.20312 5.49753 5.49753 2.20312 9.54688 2.20312ZM4.78445 16.9501C5.20525 17.2218 5.64661 17.4642 6.1122 17.6617C5.71417 18.847 5.43805 20.0609 5.28897 21.2969H3.79819C3.96269 19.8156 4.28948 18.3616 4.78445 16.9501ZM3.67188 23.5C3.67188 23.2547 3.68069 23.0102 3.6895 22.7656H5.17367C5.16412 23.0109 5.14062 23.254 5.14062 23.5C5.14062 23.746 5.14944 23.9906 5.15898 24.2344H3.69023C3.68142 23.9906 3.67188 23.746 3.67188 23.5ZM3.79745 25.7031H5.27795C6.28331 34.0684 12.9316 40.7167 21.2969 41.7228V43.2033C12.1209 42.1832 4.81677 34.8791 3.79745 25.7031ZM23.5 43.3281C23.254 43.3281 23.0094 43.3186 22.7656 43.3098V41.841C23.0094 41.8506 23.254 41.8594 23.5 41.8594C23.746 41.8594 23.9891 41.8359 24.2344 41.8263V43.3105C23.9898 43.3193 23.7453 43.3281 23.5 43.3281ZM25.7031 43.2018V41.711C26.9391 41.562 28.153 41.2858 29.3375 40.8878C29.5351 41.3534 29.7774 41.7948 30.0492 42.2155C28.6384 42.7105 27.1844 43.0373 25.7031 43.2018ZM32.4704 42.8324C33.0285 40.5456 35.0649 38.9219 37.4531 38.9219C39.8413 38.9219 41.8777 40.5456 42.4359 42.8324C41.125 44.0471 39.3772 44.7969 37.4531 44.7969C35.5291 44.7969 33.7812 44.0471 32.4704 42.8324ZM35.25 35.25C35.25 34.0353 36.2385 33.0469 37.4531 33.0469C38.6678 33.0469 39.6562 34.0353 39.6562 35.25C39.6562 36.4647 38.6678 37.4531 37.4531 37.4531C36.2385 37.4531 35.25 36.4647 35.25 35.25ZM44.7969 37.4531C44.7969 38.9637 44.3372 40.3686 43.5521 41.5377C42.8743 39.8861 41.5634 38.5965 39.9353 37.9385C40.6616 37.2673 41.125 36.3148 41.125 35.25C41.125 33.2253 39.4778 31.5781 37.4531 31.5781C35.4285 31.5781 33.7812 33.2253 33.7812 35.25C33.7812 36.3148 34.2446 37.2673 34.9709 37.9385C33.3421 38.5965 32.032 39.8854 31.3541 41.5377C30.5691 40.3686 30.1094 38.9637 30.1094 37.4531C30.1094 33.4038 33.4038 30.1094 37.4531 30.1094C41.5025 30.1094 44.7969 33.4038 44.7969 37.4531ZM42.2155 30.0499C41.7948 29.7782 41.3534 29.5358 40.8878 29.3383C41.2858 28.1537 41.5627 26.9398 41.711 25.7039H43.2018C43.0373 27.1844 42.7105 28.6384 42.2155 30.0499ZM43.3281 23.5C43.3281 23.7453 43.3193 23.9898 43.3105 24.2344H41.8263C41.8359 23.9891 41.8594 23.746 41.8594 23.5C41.8594 23.254 41.8506 23.0094 41.841 22.7656H43.3098C43.3186 23.0094 43.3281 23.254 43.3281 23.5Z" fill="#1F1F1F"/>
<path d="M36.5754 18.6164C36.7443 19.0702 36.8927 19.5395 37.0139 20.0117L38.4371 19.6445C38.302 19.1231 38.1389 18.6039 37.9517 18.1023L36.5754 18.6164Z" fill="#1F1F1F"/>
<path d="M32.7553 11.1625L31.8733 12.3375C33.5873 13.6256 35.0025 15.3146 35.9645 17.2211L37.2754 16.5601C36.2127 14.4525 34.6492 12.5864 32.7553 11.1625Z" fill="#1F1F1F"/>
<path d="M12.1951 33.9898C12.5439 34.3651 12.9148 34.7272 13.2988 35.0664L14.2711 33.9649C13.9231 33.6586 13.5874 33.3304 13.2724 32.9904L12.1951 33.9898Z" fill="#1F1F1F"/>
<path d="M10.3811 28.2625L8.99976 28.7633C9.17527 29.2458 9.37649 29.7246 9.59827 30.185L10.9209 29.5469C10.7211 29.1305 10.539 28.6987 10.3811 28.2625Z" fill="#1F1F1F"/>
<path d="M11.5878 30.7695L10.3357 31.537C10.6045 31.9761 10.8975 32.4042 11.2052 32.8096L12.3758 31.9218C12.0967 31.5553 11.8316 31.1668 11.5878 30.7695Z" fill="#1F1F1F"/>
</g>
<defs>
<clipPath id="clip0_54_1546">
<rect width="47" height="47" fill="white"/>
</clipPath>
</defs>
</svg>
